<?xml version="1.0" encoding="utf-8"?>
<?xml-stylesheet type="text/xsl" href="rss1.xsl"?>
<rss version="2.0" xmlns:atom="http://www.w3.org/2005/Atom" xmlns:content="http://purl.org/rss/1.0/modules/content/" xmlns:dc="http://purl.org/dc/elements/1.1/" xmlns:media="http://search.yahoo.com/mrss/">
<channel>
 <title>Getty</title>
 <link>http://www.gettyimg.com/</link>
 <atom:link href="http://www.gettyimg.com/" rel="self" type="application/rss+xml" />

 
                <item>
                <title><![CDATA[【UPSCALED】Avril Lavigne - Hello Kitty (Music Video) 1080p Upscale]]></title>
                <link><![CDATA[https://sharemania.us/threads/avril-lavigne-hello-kitty-music-video-1080p-upscale.235414/]]></link>
                <description><![CDATA[<article>
<blockquote class="messageText SelectQuoteContainer ugc baseHtml">
Upscaled by me <img src="styles/default/xenforo/smilies/big_smile-48.png" class="mceSmilie" alt=":)" title="Smile    :)"><br>
<br>
AVAILABLE UNTIL January 25, 2024. I won't be re-uploading it, so make a copy and have fun!<br>
<br>
<img src="https://i.imgur.com/Mwso4P9.jpeg" class="bbCodeImage LbImage" alt="[​IMG]" data-url="https://i.imgur.com/Mwso4P9.jpeg" style=""> <img src="https://i.imgur.com/sfV0k6U.jpeg" class="bbCodeImage LbImage" alt="[​IMG]" data-url="https://i.imgur.com/sfV0k6U.jpeg" style=""> <img src="https://i.imgur.com/uo8stbe.jpeg" class="bbCodeImage LbImage" alt="[​IMG]" data-url="https://i.imgur.com/uo8stbe.jpeg" style=""> <img src="https://i.imgur.com/hYdn4Hj.jpeg" class="bbCodeImage LbImage" alt="[​IMG]" data-url="https://i.imgur.com/hYdn4Hj.jpeg" style=""> <img src="https://i.imgur.com/jc47I7i.jpeg" class="bbCodeImage LbImage" alt="[​IMG]" data-url="https://i.imgur.com/jc47I7i.jpeg" style=""> <img src="https://i.imgur.com/ooY6z37.jpeg" class="bbCodeImage LbImage" alt="[​IMG]" data-url="https://i.imgur.com/ooY6z37.jpeg" style=""> <img src="https://i.imgur.com/AzWB3en.jpeg" class="bbCodeImage LbImage" alt="[​IMG]" data-url="https://i.imgur.com/AzWB3en.jpeg" style=""> <img src="https://i.imgur.com/KAybYkS.jpeg" class="bbCodeImage LbImage" alt="[​IMG]" data-url="https://i.imgur.com/KAybYkS.jpeg" style=""> <br>
<br>
<div class="ToggleTriggerAnchor bbCodeSpoilerContainer">
<button type="button" class="button bbCodeSpoilerButton ToggleTrigger Tooltip JsOnly" data-target="> .SpoilerTarget"><span>Spoiler: <span class="SpoilerTitle">MediaInfo</span></span></button>
<div class="SpoilerTarget bbCodeSpoilerText">General<br>
Unique ID : 322764546681013320494589990347946733922 (0xF2D230C77D10E4DDC29C92C6963E3162)<br>
Complete name : C:\Videos\Avril Lavigne - Hello Kitty (Music Video) 1080p Upscale.mkv<br>
Format : Matroska<br>
Format version : Version 4<br>
File size : 1 008 MiB<br>
Duration : 3 min 22 s<br>
Overall bit rate : 41.8 Mb/s<br>
Writing application : Lavf60.14.101<br>
Writing library : Lavf60.14.101<br>
ErrorDetectionType : Per level 1<br>
VIDEOAI : Enhanced using prob-3; mode: manual; revert compression at 100; recover details at 60; sharpen at 26; reduce noise at 75; dehalo at 0; anti-alias/deblur at 39; and recover original detail at 49. Changed resolution to 1920x1080<br>
<br>
Video<br>
ID : 1<br>
Format : HEVC<br>
Format/Info : High Efficiency Video Coding<br>
Format profile : Main@L6.2@High<br>
Codec ID : V_MPEGH/ISO/HEVC<br>
Duration : 3 min 22 s<br>
Bit rate : 38.7 Mb/s<br>
Width : 1 920 pixels<br>
Height : 1 080 pixels<br>
Display aspect ratio : 16:9<br>
Frame rate mode : Constant<br>
Frame rate : 23.976 (24000/1001) FPS<br>
Color space : YUV<br>
Chroma subsampling : 4:2:0<br>
Bit depth : 8 bits<br>
Bits/(Pixel*Frame) : 0.778<br>
Time code of first frame : 01:00:00:00<br>
Time code source : Matroska tags<br>
Stream size : 933 MiB (93%)<br>
Writing library : Lavc60.27.101 hevc_amf<br>
Language : English<br>
Default : No<br>
Forced : No<br>
Color range : Limited<br>
Transfer characteristics : BT.709<br>
Matrix coefficients : BT.709<br>
VENDOR_ID : FFMP<br>
<br>
Audio<br>
ID : 2<br>
Format : PCM<br>
Format settings : Little / Signed<br>
Codec ID : A_PCM/INT/LIT<br>
Duration : 3 min 22 s<br>
Bit rate mode : Constant<br>
Bit rate : 2 304 kb/s<br>
Channel(s) : 2 channels<br>
Sampling rate : 48.0 kHz<br>
Bit depth : 24 bits<br>
Stream size : 55.5 MiB (6%)<br>
Writing library : Lavc60.27.101 pcm_s24le<br>
Language : English<br>
Default : Yes<br>
Forced : No<br>
VENDOR_ID : [0][0][0][0]</div>
</div><br>
<div class="bbCodeBlock bbCodeVfcHH HiddenContent">
<div class="attribution type">Hidden Content:</div>
<blockquote>You must reply before you can see the hidden data contained here.</blockquote>
</div>
<div class="messageTextEndMarker">&nbsp;</div>
</blockquote>
</article>]]></description>
                <author><![CDATA[Avril1255]]></author>
                </item>

                </channel></rss>